<svg width="28" height="28" viewBox="0 0 28 28" fill="none" xmlns="http://www.w3.org/2000/svg">
<path d="M0 3C0 1.34315 1.34315 0 3 0H25C26.6569 0 28 1.34315 28 3V25C28 26.6569 26.6569 28 25 28H3C1.34315 28 0 26.6569 0 25V3Z" fill="#FAFAFA"/>
<path fill-rule="evenodd" clip-rule="evenodd" d="M19.2 10.4L16 13.6H18.4C18.4 16.248 16.248 18.4 13.6 18.4C12.792 18.4 12.024 18.2 11.36 17.84L10.192 19.008C11.176 19.632 12.344 20 13.6 20C17.136 20 20 17.136 20 13.6H22.4L19.2 10.4ZM8.80005 13.6C8.80005 10.952 10.952 8.79995 13.6 8.79995C14.408 8.79995 15.176 8.99995 15.84 9.35995L17.008 8.19195C16.024 7.56795 14.856 7.19995 13.6 7.19995C10.064 7.19995 7.20005 10.064 7.20005 13.6H4.80005L8.00005 16.8L11.2 13.6H8.80005Z" fill="#818181"/>
</svg>
